<svg width="17" height="13" viewBox="0 0 17 13" fill="none" xmlns="http://www.w3.org/2000/svg">
<circle cx="2.55319" cy="2.55319" r="2.55319" transform="matrix(-1 0 0 1 11.2134 1)" stroke="#2B3F6C"/>
<path d="M4.19189 9.8943C4.19189 9.34514 4.53712 8.85526 5.05429 8.67056V8.67056C7.38596 7.83782 9.93399 7.83782 12.2657 8.67056V8.67056C12.7828 8.85526 13.1281 9.34514 13.1281 9.89431V10.734C13.1281 11.4919 12.4568 12.0741 11.7064 11.967L11.4563 11.9312C9.60149 11.6662 7.71846 11.6662 5.86368 11.9312L5.61352 11.967C4.8632 12.0741 4.19189 11.4919 4.19189 10.734V9.8943Z" stroke="#2B3F6C"/>
<path d="M12.4895 6.17427C13.5975 6.17427 14.4956 5.27611 14.4956 4.16819C14.4956 3.06026 13.5975 2.16211 12.4895 2.16211" stroke="#2B3F6C" stroke-linecap="round"/>
<path d="M14.6868 10.7498L14.8834 10.7778C15.4729 10.8621 16.0003 10.4046 16.0003 9.80908V9.14933C16.0003 8.71784 15.7291 8.33294 15.3227 8.18781C14.9174 8.04305 14.5037 7.93031 14.0854 7.84961" stroke="#2B3F6C" stroke-linecap="round"/>
<path d="M4.51096 6.17427C3.40303 6.17427 2.50488 5.27611 2.50488 4.16819C2.50488 3.06026 3.40303 2.16211 4.51096 2.16211" stroke="#2B3F6C" stroke-linecap="round"/>
<path d="M2.31369 10.7498L2.11714 10.7778C1.5276 10.8621 1.00015 10.4046 1.00015 9.80908V9.14933C1.00015 8.71784 1.2714 8.33294 1.67775 8.18781C2.08308 8.04305 2.49674 7.93031 2.91504 7.84961" stroke="#2B3F6C" stroke-linecap="round"/>
</svg>
